<svg width="24" height="24" viewBox="0 0 24 24" fill="none" xmlns="http://www.w3.org/2000/svg">
<path d="M18 7L17.114 17.342C17.003 18.632 16.948 19.278 16.661 19.766C16.4085 20.1962 16.033 20.5409 15.583 20.756C15.072 21 14.423 21 13.128 21H10.872C9.576 21 8.928 21 8.417 20.756C7.96695 20.5409 7.59153 20.1962 7.339 19.766C7.052 19.278 6.997 18.632 6.886 17.342L6 7M4.5 6.5H9.115M9.115 6.5L9.501 3.828C9.613 3.342 10.017 3 10.481 3H13.519C13.983 3 14.386 3.342 14.499 3.828L14.885 6.5M9.115 6.5H14.885M14.885 6.5H19.5" stroke="#50555C" stroke-width="1.5" stroke-linecap="round" stroke-linejoin="round"/>
</svg>
